<svg width="135" height="40" viewBox="0 0 135 40" fill="none" xmlns="http://www.w3.org/2000/svg">
  <rect width="135" height="40" rx="6" fill="#000000"/>
  <path d="M31.0625 19.5605C31.0625 20.0605 30.9375 20.5605 30.6875 21.0605C30.4375 21.5605 30.0625 21.9355 29.5625 22.1855C29.0625 22.4355 28.5625 22.5605 28.0625 22.5605C27.5625 22.5605 27.0625 22.4355 26.5625 22.1855C26.0625 21.9355 25.6875 21.5605 25.4375 21.0605C25.1875 20.5605 25.0625 20.0605 25.0625 19.5605C25.0625 19.0605 25.1875 18.5605 25.4375 18.0605C25.6875 17.5605 26.0625 17.1855 26.5625 16.9355C27.0625 16.6855 27.5625 16.5605 28.0625 16.5605C28.5625 16.5605 29.0625 16.6855 29.5625 16.9355C30.0625 17.1855 30.4375 17.5605 30.6875 18.0605C30.9375 18.5605 31.0625 19.0605 31.0625 19.5605Z" fill="white"/>
  <text x="45" y="16" fill="white" font-family="Arial, sans-serif" font-size="8" font-weight="300">Download on the</text>
  <text x="45" y="28" fill="white" font-family="Arial, sans-serif" font-size="14" font-weight="600">App Store</text>
</svg>